<mxfile host="65bd71144e">
    <diagram id="E_QgQkRV4FquugX7nkDo" name="ページ1">
        <mxGraphModel dx="851" dy="666" grid="1" gridSize="10" guides="1" tooltips="1" connect="1" arrows="1" fold="1" page="1" pageScale="1" pageWidth="827" pageHeight="1169" math="0" shadow="0">
            <root>
                <mxCell id="0"/>
                <mxCell id="1" parent="0"/>
                <mxCell id="136" value="" style="ellipse;whiteSpace=wrap;html=1;aspect=fixed;fillColor=#d5e8d4;strokeColor=#82b366;" parent="1" vertex="1">
                    <mxGeometry x="39" y="1580" width="750" height="750" as="geometry"/>
                </mxCell>
                <mxCell id="135" value="" style="ellipse;whiteSpace=wrap;html=1;aspect=fixed;fillColor=#f8cecc;strokeColor=#b85450;" parent="1" vertex="1">
                    <mxGeometry x="229" y="1754" width="370" height="370" as="geometry"/>
                </mxCell>
                <mxCell id="134" value="" style="ellipse;whiteSpace=wrap;html=1;aspect=fixed;fillColor=#fff2cc;strokeColor=#d6b656;" parent="1" vertex="1">
                    <mxGeometry x="420" y="1850" width="180" height="180" as="geometry"/>
                </mxCell>
                <mxCell id="97" value="domain" style="rounded=0;whiteSpace=wrap;html=1;fillColor=none;verticalAlign=top;fontStyle=1" parent="1" vertex="1">
                    <mxGeometry x="420" y="1260" width="180" height="280" as="geometry"/>
                </mxCell>
                <mxCell id="73" value="&lt;span style=&quot;font-weight: normal;&quot;&gt;Model&lt;br&gt;&lt;/span&gt;" style="rounded=0;whiteSpace=wrap;html=1;fillColor=default;verticalAlign=top;fontStyle=1" parent="1" vertex="1">
                    <mxGeometry x="340" y="867.5" width="430" height="172.5" as="geometry"/>
                </mxCell>
                <mxCell id="2" value="presentation&lt;br&gt;(interface)" style="rounded=0;whiteSpace=wrap;html=1;fillColor=none;verticalAlign=top;fontStyle=1" parent="1" vertex="1">
                    <mxGeometry x="40" y="160" width="200" height="280" as="geometry"/>
                </mxCell>
                <mxCell id="3" value="アーキテクチャ" style="rounded=0;whiteSpace=wrap;html=1;align=left;shadow=1;glass=0;fontStyle=1" parent="1" vertex="1">
                    <mxGeometry x="40" y="40" width="340" height="40" as="geometry"/>
                </mxCell>
                <mxCell id="4" value="" style="rounded=0;whiteSpace=wrap;html=1;fillColor=none;" parent="1" vertex="1">
                    <mxGeometry x="40" y="140" width="40" height="20" as="geometry"/>
                </mxCell>
                <mxCell id="5" value="applicaton&lt;br&gt;(businesslogic)" style="rounded=0;whiteSpace=wrap;html=1;fillColor=none;verticalAlign=top;fontStyle=1" parent="1" vertex="1">
                    <mxGeometry x="320" y="160" width="200" height="280" as="geometry"/>
                </mxCell>
                <mxCell id="6" value="" style="rounded=0;whiteSpace=wrap;html=1;fillColor=none;" parent="1" vertex="1">
                    <mxGeometry x="320" y="140" width="40" height="20" as="geometry"/>
                </mxCell>
                <mxCell id="7" value="dataaccess" style="rounded=0;whiteSpace=wrap;html=1;fillColor=none;verticalAlign=top;fontStyle=1" parent="1" vertex="1">
                    <mxGeometry x="600" y="160" width="200" height="280" as="geometry"/>
                </mxCell>
                <mxCell id="8" value="" style="rounded=0;whiteSpace=wrap;html=1;fillColor=none;" parent="1" vertex="1">
                    <mxGeometry x="600" y="140" width="40" height="20" as="geometry"/>
                </mxCell>
                <mxCell id="9" value="&lt;span style=&quot;font-weight: normal;&quot;&gt;Request&lt;/span&gt;" style="rounded=0;whiteSpace=wrap;html=1;fillColor=none;verticalAlign=middle;fontStyle=1" parent="1" vertex="1">
                    <mxGeometry x="80" y="200" width="80" height="40" as="geometry"/>
                </mxCell>
                <mxCell id="10" value="&lt;span style=&quot;font-weight: normal;&quot;&gt;Router&lt;br&gt;(Controller)&lt;br&gt;&lt;/span&gt;" style="rounded=0;whiteSpace=wrap;html=1;fillColor=none;verticalAlign=middle;fontStyle=1" parent="1" vertex="1">
                    <mxGeometry x="120" y="280" width="80" height="40" as="geometry"/>
                </mxCell>
                <mxCell id="11" value="&lt;span style=&quot;font-weight: normal;&quot;&gt;Response&lt;/span&gt;" style="rounded=0;whiteSpace=wrap;html=1;fillColor=none;verticalAlign=middle;fontStyle=1" parent="1" vertex="1">
                    <mxGeometry x="80" y="360" width="80" height="40" as="geometry"/>
                </mxCell>
                <mxCell id="12" value="&lt;span style=&quot;font-weight: normal;&quot;&gt;Service&lt;br&gt;(Logic)&lt;br&gt;&lt;/span&gt;" style="rounded=0;whiteSpace=wrap;html=1;fillColor=none;verticalAlign=middle;fontStyle=1" parent="1" vertex="1">
                    <mxGeometry x="400" y="280" width="80" height="40" as="geometry"/>
                </mxCell>
                <mxCell id="13" value="&lt;span style=&quot;font-weight: normal;&quot;&gt;Output&lt;br&gt;(Dto)&lt;br&gt;&lt;/span&gt;" style="rounded=0;whiteSpace=wrap;html=1;fillColor=none;verticalAlign=middle;fontStyle=1" parent="1" vertex="1">
                    <mxGeometry x="360" y="360" width="80" height="40" as="geometry"/>
                </mxCell>
                <mxCell id="14" value="" style="endArrow=classic;html=1;entryX=0.5;entryY=1;entryDx=0;entryDy=0;exitX=0.5;exitY=0;exitDx=0;exitDy=0;" parent="1" source="10" target="9" edge="1">
                    <mxGeometry width="50" height="50" relative="1" as="geometry">
                        <mxPoint x="330" y="310" as="sourcePoint"/>
                        <mxPoint x="380" y="260" as="targetPoint"/>
                    </mxGeometry>
                </mxCell>
                <mxCell id="17" value="" style="endArrow=classic;html=1;entryX=0.5;entryY=0;entryDx=0;entryDy=0;exitX=0.5;exitY=1;exitDx=0;exitDy=0;" parent="1" source="10" target="11" edge="1">
                    <mxGeometry width="50" height="50" relative="1" as="geometry">
                        <mxPoint x="170" y="350" as="sourcePoint"/>
                        <mxPoint x="130" y="310" as="targetPoint"/>
                    </mxGeometry>
                </mxCell>
                <mxCell id="18" value="" style="endArrow=classic;html=1;entryX=0;entryY=0.5;entryDx=0;entryDy=0;exitX=1;exitY=0.5;exitDx=0;exitDy=0;" parent="1" source="10" target="12" edge="1">
                    <mxGeometry width="50" height="50" relative="1" as="geometry">
                        <mxPoint x="170" y="330" as="sourcePoint"/>
                        <mxPoint x="130" y="370" as="targetPoint"/>
                    </mxGeometry>
                </mxCell>
                <mxCell id="19" value="" style="endArrow=classic;html=1;entryX=0;entryY=0.5;entryDx=0;entryDy=0;exitX=1;exitY=0.75;exitDx=0;exitDy=0;" parent="1" source="10" target="13" edge="1">
                    <mxGeometry width="50" height="50" relative="1" as="geometry">
                        <mxPoint x="210" y="310" as="sourcePoint"/>
                        <mxPoint x="410" y="310" as="targetPoint"/>
                    </mxGeometry>
                </mxCell>
                <mxCell id="20" value="" style="endArrow=classic;html=1;exitX=0.5;exitY=1;exitDx=0;exitDy=0;" parent="1" source="12" edge="1">
                    <mxGeometry width="50" height="50" relative="1" as="geometry">
                        <mxPoint x="210" y="320" as="sourcePoint"/>
                        <mxPoint x="400" y="360" as="targetPoint"/>
                    </mxGeometry>
                </mxCell>
                <mxCell id="21" value="&lt;span style=&quot;font-weight: normal;&quot;&gt;Gateway&lt;/span&gt;" style="rounded=0;whiteSpace=wrap;html=1;fillColor=none;verticalAlign=middle;fontStyle=1" parent="1" vertex="1">
                    <mxGeometry x="680" y="280" width="80" height="40" as="geometry"/>
                </mxCell>
                <mxCell id="22" value="&lt;span style=&quot;font-weight: normal;&quot;&gt;Record&lt;br&gt;(Entity)&lt;br&gt;&lt;/span&gt;" style="rounded=0;whiteSpace=wrap;html=1;fillColor=none;verticalAlign=middle;fontStyle=1" parent="1" vertex="1">
                    <mxGeometry x="640" y="360" width="80" height="40" as="geometry"/>
                </mxCell>
                <mxCell id="23" value="" style="endArrow=classic;html=1;exitX=1;exitY=0.75;exitDx=0;exitDy=0;entryX=0;entryY=0.5;entryDx=0;entryDy=0;" parent="1" source="12" target="22" edge="1">
                    <mxGeometry width="50" height="50" relative="1" as="geometry">
                        <mxPoint x="450" y="330" as="sourcePoint"/>
                        <mxPoint x="410" y="370" as="targetPoint"/>
                    </mxGeometry>
                </mxCell>
                <mxCell id="24" value="" style="endArrow=classic;html=1;entryX=0;entryY=0.5;entryDx=0;entryDy=0;" parent="1" target="21" edge="1">
                    <mxGeometry width="50" height="50" relative="1" as="geometry">
                        <mxPoint x="480" y="300" as="sourcePoint"/>
                        <mxPoint x="650" y="390" as="targetPoint"/>
                    </mxGeometry>
                </mxCell>
                <mxCell id="25" value="" style="endArrow=classic;html=1;exitX=0.5;exitY=1;exitDx=0;exitDy=0;" parent="1" source="21" edge="1">
                    <mxGeometry width="50" height="50" relative="1" as="geometry">
                        <mxPoint x="490" y="320" as="sourcePoint"/>
                        <mxPoint x="680" y="360" as="targetPoint"/>
                    </mxGeometry>
                </mxCell>
                <mxCell id="26" value="3層構造" style="rounded=0;whiteSpace=wrap;html=1;align=left;shadow=1;glass=0;fontStyle=1" parent="1" vertex="1">
                    <mxGeometry x="40" y="100" width="340" height="20" as="geometry"/>
                </mxCell>
                <mxCell id="27" value="MVC" style="rounded=0;whiteSpace=wrap;html=1;align=left;shadow=1;glass=0;fontStyle=1" parent="1" vertex="1">
                    <mxGeometry x="40" y="480" width="340" height="20" as="geometry"/>
                </mxCell>
                <mxCell id="28" value="presentation&lt;br&gt;(interface)" style="rounded=0;whiteSpace=wrap;html=1;fillColor=none;verticalAlign=top;fontStyle=1" parent="1" vertex="1">
                    <mxGeometry x="40" y="520" width="200" height="200" as="geometry"/>
                </mxCell>
                <mxCell id="29" value="applicaton&lt;br&gt;(businesslogic)" style="rounded=0;whiteSpace=wrap;html=1;fillColor=none;verticalAlign=top;fontStyle=1" parent="1" vertex="1">
                    <mxGeometry x="320" y="520" width="200" height="200" as="geometry"/>
                </mxCell>
                <mxCell id="30" value="dataaccess" style="rounded=0;whiteSpace=wrap;html=1;fillColor=none;verticalAlign=top;fontStyle=1" parent="1" vertex="1">
                    <mxGeometry x="600" y="520" width="200" height="200" as="geometry"/>
                </mxCell>
                <mxCell id="31" value="&lt;span style=&quot;font-weight: normal;&quot;&gt;Controller&lt;/span&gt;" style="rounded=0;whiteSpace=wrap;html=1;fillColor=none;verticalAlign=middle;fontStyle=1" parent="1" vertex="1">
                    <mxGeometry x="100" y="585" width="80" height="40" as="geometry"/>
                </mxCell>
                <mxCell id="32" value="&lt;span style=&quot;font-weight: normal;&quot;&gt;View&lt;br&gt;&lt;/span&gt;" style="rounded=0;whiteSpace=wrap;html=1;fillColor=none;verticalAlign=middle;fontStyle=1" parent="1" vertex="1">
                    <mxGeometry x="100" y="660" width="80" height="40" as="geometry"/>
                </mxCell>
                <mxCell id="34" value="&lt;span style=&quot;font-weight: normal;&quot;&gt;Model&lt;br&gt;&lt;/span&gt;" style="rounded=0;whiteSpace=wrap;html=1;fillColor=default;verticalAlign=middle;fontStyle=1" parent="1" vertex="1">
                    <mxGeometry x="360" y="585" width="400" height="115" as="geometry"/>
                </mxCell>
                <mxCell id="36" value="" style="endArrow=classic;html=1;exitX=0.5;exitY=1;exitDx=0;exitDy=0;" parent="1" source="31" edge="1">
                    <mxGeometry width="50" height="50" relative="1" as="geometry">
                        <mxPoint x="330" y="670" as="sourcePoint"/>
                        <mxPoint x="140" y="660" as="targetPoint"/>
                    </mxGeometry>
                </mxCell>
                <mxCell id="38" value="" style="endArrow=classic;html=1;entryX=0;entryY=0.75;entryDx=0;entryDy=0;exitX=1;exitY=0.5;exitDx=0;exitDy=0;" parent="1" source="32" target="34" edge="1">
                    <mxGeometry width="50" height="50" relative="1" as="geometry">
                        <mxPoint x="170" y="690" as="sourcePoint"/>
                        <mxPoint x="130" y="730" as="targetPoint"/>
                    </mxGeometry>
                </mxCell>
                <mxCell id="39" value="" style="endArrow=classic;html=1;entryX=0;entryY=0.25;entryDx=0;entryDy=0;exitX=1;exitY=0.5;exitDx=0;exitDy=0;" parent="1" source="31" target="34" edge="1">
                    <mxGeometry width="50" height="50" relative="1" as="geometry">
                        <mxPoint x="210" y="670" as="sourcePoint"/>
                        <mxPoint x="410" y="670" as="targetPoint"/>
                    </mxGeometry>
                </mxCell>
                <mxCell id="46" value="presentation&lt;br&gt;(interface)" style="rounded=0;whiteSpace=wrap;html=1;fillColor=none;verticalAlign=top;fontStyle=1" parent="1" vertex="1">
                    <mxGeometry x="40" y="820" width="200" height="260" as="geometry"/>
                </mxCell>
                <mxCell id="47" value="" style="rounded=0;whiteSpace=wrap;html=1;fillColor=none;" parent="1" vertex="1">
                    <mxGeometry x="40" y="800" width="40" height="20" as="geometry"/>
                </mxCell>
                <mxCell id="48" value="applicaton&lt;br&gt;(businesslogic)" style="rounded=0;whiteSpace=wrap;html=1;fillColor=none;verticalAlign=top;fontStyle=1" parent="1" vertex="1">
                    <mxGeometry x="320" y="820" width="200" height="260" as="geometry"/>
                </mxCell>
                <mxCell id="49" value="" style="rounded=0;whiteSpace=wrap;html=1;fillColor=none;" parent="1" vertex="1">
                    <mxGeometry x="320" y="800" width="40" height="20" as="geometry"/>
                </mxCell>
                <mxCell id="50" value="dataaccess" style="rounded=0;whiteSpace=wrap;html=1;fillColor=none;verticalAlign=top;fontStyle=1" parent="1" vertex="1">
                    <mxGeometry x="600" y="820" width="200" height="260" as="geometry"/>
                </mxCell>
                <mxCell id="51" value="" style="rounded=0;whiteSpace=wrap;html=1;fillColor=none;" parent="1" vertex="1">
                    <mxGeometry x="600" y="800" width="40" height="20" as="geometry"/>
                </mxCell>
                <mxCell id="55" value="&lt;span style=&quot;font-weight: normal;&quot;&gt;Service&lt;br&gt;(Logic)&lt;br&gt;&lt;/span&gt;" style="rounded=0;whiteSpace=wrap;html=1;fillColor=none;verticalAlign=middle;fontStyle=1" parent="1" vertex="1">
                    <mxGeometry x="380" y="905" width="80" height="40" as="geometry"/>
                </mxCell>
                <mxCell id="56" value="&lt;span style=&quot;font-weight: normal;&quot;&gt;Output&lt;br&gt;(Dto)&lt;br&gt;&lt;/span&gt;" style="rounded=0;whiteSpace=wrap;html=1;fillColor=none;verticalAlign=middle;fontStyle=1" parent="1" vertex="1">
                    <mxGeometry x="380" y="980" width="80" height="40" as="geometry"/>
                </mxCell>
                <mxCell id="57" value="" style="endArrow=classic;html=1;entryX=0.5;entryY=1;entryDx=0;entryDy=0;exitX=0.5;exitY=0;exitDx=0;exitDy=0;" parent="1" edge="1">
                    <mxGeometry width="50" height="50" relative="1" as="geometry">
                        <mxPoint x="330" y="970" as="sourcePoint"/>
                        <mxPoint x="120" y="900" as="targetPoint"/>
                    </mxGeometry>
                </mxCell>
                <mxCell id="58" value="" style="endArrow=classic;html=1;entryX=0.5;entryY=0;entryDx=0;entryDy=0;exitX=0.5;exitY=1;exitDx=0;exitDy=0;" parent="1" edge="1">
                    <mxGeometry width="50" height="50" relative="1" as="geometry">
                        <mxPoint x="160" y="980" as="sourcePoint"/>
                        <mxPoint x="130" y="970" as="targetPoint"/>
                    </mxGeometry>
                </mxCell>
                <mxCell id="59" value="" style="endArrow=classic;html=1;entryX=0;entryY=0.5;entryDx=0;entryDy=0;exitX=1;exitY=0.5;exitDx=0;exitDy=0;" parent="1" source="71" target="55" edge="1">
                    <mxGeometry width="50" height="50" relative="1" as="geometry">
                        <mxPoint x="200" y="960" as="sourcePoint"/>
                        <mxPoint x="130" y="1030" as="targetPoint"/>
                    </mxGeometry>
                </mxCell>
                <mxCell id="61" value="" style="endArrow=classic;html=1;exitX=0.5;exitY=1;exitDx=0;exitDy=0;" parent="1" source="55" target="56" edge="1">
                    <mxGeometry width="50" height="50" relative="1" as="geometry">
                        <mxPoint x="210" y="980" as="sourcePoint"/>
                        <mxPoint x="400" y="1020" as="targetPoint"/>
                    </mxGeometry>
                </mxCell>
                <mxCell id="60" value="" style="endArrow=classic;html=1;entryX=0;entryY=0.5;entryDx=0;entryDy=0;exitX=1;exitY=0.5;exitDx=0;exitDy=0;" parent="1" source="70" target="56" edge="1">
                    <mxGeometry width="50" height="50" relative="1" as="geometry">
                        <mxPoint x="200" y="970" as="sourcePoint"/>
                        <mxPoint x="410" y="970" as="targetPoint"/>
                    </mxGeometry>
                </mxCell>
                <mxCell id="62" value="&lt;span style=&quot;font-weight: normal;&quot;&gt;Gateway&lt;/span&gt;" style="rounded=0;whiteSpace=wrap;html=1;fillColor=none;verticalAlign=middle;fontStyle=1" parent="1" vertex="1">
                    <mxGeometry x="660" y="905" width="80" height="40" as="geometry"/>
                </mxCell>
                <mxCell id="63" value="&lt;span style=&quot;font-weight: normal;&quot;&gt;Record&lt;br&gt;(Entity)&lt;br&gt;&lt;/span&gt;" style="rounded=0;whiteSpace=wrap;html=1;fillColor=none;verticalAlign=middle;fontStyle=1" parent="1" vertex="1">
                    <mxGeometry x="660" y="980" width="80" height="40" as="geometry"/>
                </mxCell>
                <mxCell id="64" value="" style="endArrow=classic;html=1;exitX=1;exitY=0.75;exitDx=0;exitDy=0;entryX=0;entryY=0.5;entryDx=0;entryDy=0;" parent="1" source="55" target="63" edge="1">
                    <mxGeometry width="50" height="50" relative="1" as="geometry">
                        <mxPoint x="450" y="990" as="sourcePoint"/>
                        <mxPoint x="410" y="1030" as="targetPoint"/>
                    </mxGeometry>
                </mxCell>
                <mxCell id="65" value="" style="endArrow=classic;html=1;entryX=0;entryY=0.5;entryDx=0;entryDy=0;exitX=1;exitY=0.5;exitDx=0;exitDy=0;" parent="1" source="55" target="62" edge="1">
                    <mxGeometry width="50" height="50" relative="1" as="geometry">
                        <mxPoint x="480" y="960" as="sourcePoint"/>
                        <mxPoint x="650" y="1050" as="targetPoint"/>
                    </mxGeometry>
                </mxCell>
                <mxCell id="66" value="" style="endArrow=classic;html=1;exitX=0.5;exitY=1;exitDx=0;exitDy=0;entryX=0.5;entryY=0;entryDx=0;entryDy=0;" parent="1" source="62" target="63" edge="1">
                    <mxGeometry width="50" height="50" relative="1" as="geometry">
                        <mxPoint x="490" y="980" as="sourcePoint"/>
                        <mxPoint x="680" y="1020" as="targetPoint"/>
                    </mxGeometry>
                </mxCell>
                <mxCell id="67" value="3層構造+MVC" style="rounded=0;whiteSpace=wrap;html=1;align=left;shadow=1;glass=0;fontStyle=1" parent="1" vertex="1">
                    <mxGeometry x="40" y="760" width="340" height="20" as="geometry"/>
                </mxCell>
                <mxCell id="70" value="&lt;span style=&quot;font-weight: 400;&quot;&gt;Response&lt;br&gt;&lt;/span&gt;&lt;span style=&quot;font-weight: normal;&quot;&gt;(View)&lt;br&gt;&lt;/span&gt;" style="rounded=0;whiteSpace=wrap;html=1;fillColor=none;verticalAlign=middle;fontStyle=1" parent="1" vertex="1">
                    <mxGeometry x="100" y="980" width="80" height="40" as="geometry"/>
                </mxCell>
                <mxCell id="71" value="&lt;span style=&quot;font-weight: 400;&quot;&gt;Router&lt;/span&gt;&lt;br style=&quot;border-color: var(--border-color); font-weight: 400;&quot;&gt;&lt;span style=&quot;font-weight: 400;&quot;&gt;(Controller)&lt;/span&gt;" style="rounded=0;whiteSpace=wrap;html=1;fillColor=none;verticalAlign=middle;fontStyle=1" parent="1" vertex="1">
                    <mxGeometry x="100" y="905" width="80" height="40" as="geometry"/>
                </mxCell>
                <mxCell id="72" value="" style="endArrow=classic;html=1;exitX=0.5;exitY=1;exitDx=0;exitDy=0;" parent="1" source="71" edge="1">
                    <mxGeometry width="50" height="50" relative="1" as="geometry">
                        <mxPoint x="330" y="990" as="sourcePoint"/>
                        <mxPoint x="140" y="980" as="targetPoint"/>
                    </mxGeometry>
                </mxCell>
                <mxCell id="74" value="presentation&lt;br&gt;(interface)" style="rounded=0;whiteSpace=wrap;html=1;fillColor=none;verticalAlign=top;fontStyle=1" parent="1" vertex="1">
                    <mxGeometry x="40" y="1260" width="180" height="280" as="geometry"/>
                </mxCell>
                <mxCell id="75" value="" style="rounded=0;whiteSpace=wrap;html=1;fillColor=none;" parent="1" vertex="1">
                    <mxGeometry x="40" y="1240" width="40" height="20" as="geometry"/>
                </mxCell>
                <mxCell id="76" value="applicaton" style="rounded=0;whiteSpace=wrap;html=1;fillColor=none;verticalAlign=top;fontStyle=1" parent="1" vertex="1">
                    <mxGeometry x="230" y="1260" width="180" height="280" as="geometry"/>
                </mxCell>
                <mxCell id="77" value="" style="rounded=0;whiteSpace=wrap;html=1;fillColor=none;" parent="1" vertex="1">
                    <mxGeometry x="230" y="1240" width="40" height="20" as="geometry"/>
                </mxCell>
                <mxCell id="78" value="dataaccess&lt;br&gt;(infrastructure)" style="rounded=0;whiteSpace=wrap;html=1;fillColor=none;verticalAlign=top;fontStyle=1" parent="1" vertex="1">
                    <mxGeometry x="610" y="1260" width="180" height="280" as="geometry"/>
                </mxCell>
                <mxCell id="79" value="" style="rounded=0;whiteSpace=wrap;html=1;fillColor=none;" parent="1" vertex="1">
                    <mxGeometry x="610" y="1240" width="40" height="20" as="geometry"/>
                </mxCell>
                <mxCell id="80" value="&lt;span style=&quot;font-weight: normal;&quot;&gt;Request&lt;/span&gt;" style="rounded=0;whiteSpace=wrap;html=1;fillColor=none;verticalAlign=middle;fontStyle=1" parent="1" vertex="1">
                    <mxGeometry x="80" y="1300" width="80" height="40" as="geometry"/>
                </mxCell>
                <mxCell id="81" value="&lt;span style=&quot;font-weight: normal;&quot;&gt;Router&lt;br&gt;(Controller)&lt;br&gt;&lt;/span&gt;" style="rounded=0;whiteSpace=wrap;html=1;fillColor=none;verticalAlign=middle;fontStyle=1" parent="1" vertex="1">
                    <mxGeometry x="120" y="1380" width="80" height="40" as="geometry"/>
                </mxCell>
                <mxCell id="82" value="&lt;span style=&quot;font-weight: normal;&quot;&gt;Response&lt;/span&gt;" style="rounded=0;whiteSpace=wrap;html=1;fillColor=none;verticalAlign=middle;fontStyle=1" parent="1" vertex="1">
                    <mxGeometry x="80" y="1460" width="80" height="40" as="geometry"/>
                </mxCell>
                <mxCell id="83" value="&lt;span style=&quot;font-weight: normal;&quot;&gt;Service&lt;br&gt;(Logic)&lt;br&gt;&lt;/span&gt;" style="rounded=0;whiteSpace=wrap;html=1;fillColor=none;verticalAlign=middle;fontStyle=1" parent="1" vertex="1">
                    <mxGeometry x="310" y="1380" width="80" height="40" as="geometry"/>
                </mxCell>
                <mxCell id="84" value="&lt;span style=&quot;font-weight: normal;&quot;&gt;Output&lt;br&gt;(Dto)&lt;br&gt;&lt;/span&gt;" style="rounded=0;whiteSpace=wrap;html=1;fillColor=none;verticalAlign=middle;fontStyle=1" parent="1" vertex="1">
                    <mxGeometry x="270" y="1460" width="80" height="40" as="geometry"/>
                </mxCell>
                <mxCell id="85" value="" style="endArrow=classic;html=1;entryX=0.5;entryY=1;entryDx=0;entryDy=0;exitX=0.5;exitY=0;exitDx=0;exitDy=0;" parent="1" source="81" target="80" edge="1">
                    <mxGeometry width="50" height="50" relative="1" as="geometry">
                        <mxPoint x="330" y="1410" as="sourcePoint"/>
                        <mxPoint x="380" y="1360" as="targetPoint"/>
                    </mxGeometry>
                </mxCell>
                <mxCell id="86" value="" style="endArrow=classic;html=1;entryX=0.5;entryY=0;entryDx=0;entryDy=0;exitX=0.5;exitY=1;exitDx=0;exitDy=0;" parent="1" source="81" target="82" edge="1">
                    <mxGeometry width="50" height="50" relative="1" as="geometry">
                        <mxPoint x="170" y="1450" as="sourcePoint"/>
                        <mxPoint x="130" y="1410" as="targetPoint"/>
                    </mxGeometry>
                </mxCell>
                <mxCell id="87" value="" style="endArrow=classic;html=1;entryX=0;entryY=0.5;entryDx=0;entryDy=0;exitX=1;exitY=0.5;exitDx=0;exitDy=0;" parent="1" source="81" target="83" edge="1">
                    <mxGeometry width="50" height="50" relative="1" as="geometry">
                        <mxPoint x="170" y="1430" as="sourcePoint"/>
                        <mxPoint x="130" y="1470" as="targetPoint"/>
                    </mxGeometry>
                </mxCell>
                <mxCell id="88" value="" style="endArrow=classic;html=1;entryX=0;entryY=0.5;entryDx=0;entryDy=0;exitX=1;exitY=0.75;exitDx=0;exitDy=0;" parent="1" source="81" target="84" edge="1">
                    <mxGeometry width="50" height="50" relative="1" as="geometry">
                        <mxPoint x="210" y="1410" as="sourcePoint"/>
                        <mxPoint x="410" y="1410" as="targetPoint"/>
                    </mxGeometry>
                </mxCell>
                <mxCell id="89" value="" style="endArrow=classic;html=1;exitX=0.5;exitY=1;exitDx=0;exitDy=0;entryX=0.5;entryY=0;entryDx=0;entryDy=0;" parent="1" source="83" target="84" edge="1">
                    <mxGeometry width="50" height="50" relative="1" as="geometry">
                        <mxPoint x="130" y="1340" as="sourcePoint"/>
                        <mxPoint x="320" y="1380" as="targetPoint"/>
                    </mxGeometry>
                </mxCell>
                <mxCell id="90" value="&lt;span style=&quot;font-weight: normal;&quot;&gt;Gateway&lt;/span&gt;" style="rounded=0;whiteSpace=wrap;html=1;fillColor=none;verticalAlign=middle;fontStyle=1" parent="1" vertex="1">
                    <mxGeometry x="670" y="1380" width="80" height="40" as="geometry"/>
                </mxCell>
                <mxCell id="91" value="&lt;span style=&quot;font-weight: normal;&quot;&gt;Record&lt;br&gt;(Entity)&lt;br&gt;&lt;/span&gt;" style="rounded=0;whiteSpace=wrap;html=1;fillColor=none;verticalAlign=middle;fontStyle=1" parent="1" vertex="1">
                    <mxGeometry x="630" y="1460" width="80" height="40" as="geometry"/>
                </mxCell>
                <mxCell id="92" value="" style="endArrow=classic;html=1;exitX=1;exitY=0.75;exitDx=0;exitDy=0;entryX=0;entryY=0.5;entryDx=0;entryDy=0;" parent="1" source="102" target="91" edge="1">
                    <mxGeometry width="50" height="50" relative="1" as="geometry">
                        <mxPoint x="450" y="1430" as="sourcePoint"/>
                        <mxPoint x="410" y="1470" as="targetPoint"/>
                    </mxGeometry>
                </mxCell>
                <mxCell id="93" value="" style="endArrow=classic;html=1;exitX=1;exitY=0.5;exitDx=0;exitDy=0;" parent="1" source="83" target="102" edge="1">
                    <mxGeometry width="50" height="50" relative="1" as="geometry">
                        <mxPoint x="480" y="1400" as="sourcePoint"/>
                        <mxPoint x="650" y="1490" as="targetPoint"/>
                    </mxGeometry>
                </mxCell>
                <mxCell id="94" value="" style="endArrow=classic;html=1;exitX=0.5;exitY=1;exitDx=0;exitDy=0;" parent="1" source="90" edge="1">
                    <mxGeometry width="50" height="50" relative="1" as="geometry">
                        <mxPoint x="480" y="1420" as="sourcePoint"/>
                        <mxPoint x="670" y="1460" as="targetPoint"/>
                    </mxGeometry>
                </mxCell>
                <mxCell id="95" value="3層構造+ドメイン層+リポジトリ層" style="rounded=0;whiteSpace=wrap;html=1;align=left;shadow=1;glass=0;fontStyle=1" parent="1" vertex="1">
                    <mxGeometry x="40" y="1200" width="340" height="20" as="geometry"/>
                </mxCell>
                <mxCell id="96" value="" style="rounded=0;whiteSpace=wrap;html=1;fillColor=none;" parent="1" vertex="1">
                    <mxGeometry x="420" y="1240" width="40" height="20" as="geometry"/>
                </mxCell>
                <mxCell id="100" value="&lt;span style=&quot;font-weight: normal;&quot;&gt;Model&lt;br&gt;&lt;/span&gt;" style="rounded=0;whiteSpace=wrap;html=1;fillColor=none;verticalAlign=middle;fontStyle=1" parent="1" vertex="1">
                    <mxGeometry x="470" y="1320" width="80" height="40" as="geometry"/>
                </mxCell>
                <mxCell id="101" value="" style="endArrow=classic;html=1;exitX=1;exitY=0.25;exitDx=0;exitDy=0;entryX=0;entryY=0.5;entryDx=0;entryDy=0;" parent="1" source="83" target="100" edge="1">
                    <mxGeometry width="50" height="50" relative="1" as="geometry">
                        <mxPoint x="400" y="1420" as="sourcePoint"/>
                        <mxPoint x="660" y="1490" as="targetPoint"/>
                    </mxGeometry>
                </mxCell>
                <mxCell id="102" value="&lt;span style=&quot;font-weight: normal;&quot;&gt;Repository&lt;br&gt;&lt;/span&gt;" style="rounded=0;whiteSpace=wrap;html=1;fillColor=none;verticalAlign=middle;fontStyle=1" parent="1" vertex="1">
                    <mxGeometry x="470" y="1380" width="80" height="40" as="geometry"/>
                </mxCell>
                <mxCell id="103" value="" style="endArrow=classic;html=1;exitX=1;exitY=0.5;exitDx=0;exitDy=0;entryX=0;entryY=0.5;entryDx=0;entryDy=0;" parent="1" source="102" target="90" edge="1">
                    <mxGeometry width="50" height="50" relative="1" as="geometry">
                        <mxPoint x="400" y="1410.0000000000002" as="sourcePoint"/>
                        <mxPoint x="480" y="1410.0000000000002" as="targetPoint"/>
                    </mxGeometry>
                </mxCell>
                <mxCell id="104" value="domain層は独立させたいため、infrastructureから逆依存へ&lt;br&gt;→ヘキサゴナルアーキテクチャ・オニオンアーキテクチャ・クリーンアーキテクチャ" style="rounded=0;whiteSpace=wrap;html=1;align=left;shadow=1;glass=0;fontStyle=1" parent="1" vertex="1">
                    <mxGeometry x="40" y="1580" width="340" height="60" as="geometry"/>
                </mxCell>
                <mxCell id="105" value="domain" style="rounded=0;whiteSpace=wrap;html=1;fillColor=none;verticalAlign=top;fontStyle=1" parent="1" vertex="1">
                    <mxGeometry x="419" y="1799" width="180" height="280" as="geometry"/>
                </mxCell>
                <mxCell id="106" value="presentation&lt;br&gt;(interface)" style="rounded=0;whiteSpace=wrap;html=1;fillColor=none;verticalAlign=top;fontStyle=1" parent="1" vertex="1">
                    <mxGeometry x="39" y="1799" width="180" height="280" as="geometry"/>
                </mxCell>
                <mxCell id="107" value="" style="rounded=0;whiteSpace=wrap;html=1;fillColor=none;" parent="1" vertex="1">
                    <mxGeometry x="39" y="1779" width="40" height="20" as="geometry"/>
                </mxCell>
                <mxCell id="108" value="applicaton" style="rounded=0;whiteSpace=wrap;html=1;fillColor=none;verticalAlign=top;fontStyle=1" parent="1" vertex="1">
                    <mxGeometry x="229" y="1799" width="180" height="280" as="geometry"/>
                </mxCell>
                <mxCell id="109" value="" style="rounded=0;whiteSpace=wrap;html=1;fillColor=none;" parent="1" vertex="1">
                    <mxGeometry x="229" y="1779" width="40" height="20" as="geometry"/>
                </mxCell>
                <mxCell id="110" value="dataaccess&lt;br&gt;(infrastructure)" style="rounded=0;whiteSpace=wrap;html=1;fillColor=none;verticalAlign=top;fontStyle=1" parent="1" vertex="1">
                    <mxGeometry x="609" y="1799" width="180" height="280" as="geometry"/>
                </mxCell>
                <mxCell id="111" value="" style="rounded=0;whiteSpace=wrap;html=1;fillColor=none;" parent="1" vertex="1">
                    <mxGeometry x="609" y="1779" width="40" height="20" as="geometry"/>
                </mxCell>
                <mxCell id="112" value="&lt;span style=&quot;font-weight: normal;&quot;&gt;Request&lt;/span&gt;" style="rounded=0;whiteSpace=wrap;html=1;fillColor=none;verticalAlign=middle;fontStyle=1" parent="1" vertex="1">
                    <mxGeometry x="79" y="1839" width="80" height="40" as="geometry"/>
                </mxCell>
                <mxCell id="113" value="&lt;span style=&quot;font-weight: normal;&quot;&gt;Router&lt;br&gt;(Controller)&lt;br&gt;&lt;/span&gt;" style="rounded=0;whiteSpace=wrap;html=1;fillColor=none;verticalAlign=middle;fontStyle=1" parent="1" vertex="1">
                    <mxGeometry x="119" y="1919" width="80" height="40" as="geometry"/>
                </mxCell>
                <mxCell id="114" value="&lt;span style=&quot;font-weight: normal;&quot;&gt;Response&lt;/span&gt;" style="rounded=0;whiteSpace=wrap;html=1;fillColor=none;verticalAlign=middle;fontStyle=1" parent="1" vertex="1">
                    <mxGeometry x="79" y="1999" width="80" height="40" as="geometry"/>
                </mxCell>
                <mxCell id="115" value="&lt;span style=&quot;font-weight: normal;&quot;&gt;Service&lt;br&gt;(Logic)&lt;br&gt;(UseCase)&lt;br&gt;&lt;/span&gt;" style="rounded=0;whiteSpace=wrap;html=1;fillColor=none;verticalAlign=middle;fontStyle=1" parent="1" vertex="1">
                    <mxGeometry x="309" y="1919" width="80" height="40" as="geometry"/>
                </mxCell>
                <mxCell id="116" value="&lt;span style=&quot;font-weight: normal;&quot;&gt;Output&lt;br&gt;(Dto)&lt;br&gt;&lt;/span&gt;" style="rounded=0;whiteSpace=wrap;html=1;fillColor=none;verticalAlign=middle;fontStyle=1" parent="1" vertex="1">
                    <mxGeometry x="269" y="1999" width="80" height="40" as="geometry"/>
                </mxCell>
                <mxCell id="117" value="" style="endArrow=classic;html=1;entryX=0.5;entryY=1;entryDx=0;entryDy=0;exitX=0.5;exitY=0;exitDx=0;exitDy=0;" parent="1" source="113" target="112" edge="1">
                    <mxGeometry width="50" height="50" relative="1" as="geometry">
                        <mxPoint x="329" y="1949" as="sourcePoint"/>
                        <mxPoint x="379" y="1899" as="targetPoint"/>
                    </mxGeometry>
                </mxCell>
                <mxCell id="118" value="" style="endArrow=classic;html=1;entryX=0.5;entryY=0;entryDx=0;entryDy=0;exitX=0.5;exitY=1;exitDx=0;exitDy=0;" parent="1" source="113" target="114" edge="1">
                    <mxGeometry width="50" height="50" relative="1" as="geometry">
                        <mxPoint x="169" y="1989" as="sourcePoint"/>
                        <mxPoint x="129" y="1949" as="targetPoint"/>
                    </mxGeometry>
                </mxCell>
                <mxCell id="119" value="" style="endArrow=classic;html=1;entryX=0;entryY=0.5;entryDx=0;entryDy=0;exitX=1;exitY=0.5;exitDx=0;exitDy=0;" parent="1" source="113" target="115" edge="1">
                    <mxGeometry width="50" height="50" relative="1" as="geometry">
                        <mxPoint x="169" y="1969" as="sourcePoint"/>
                        <mxPoint x="129" y="2009" as="targetPoint"/>
                    </mxGeometry>
                </mxCell>
                <mxCell id="120" value="" style="endArrow=classic;html=1;entryX=0;entryY=0.5;entryDx=0;entryDy=0;exitX=1;exitY=0.75;exitDx=0;exitDy=0;" parent="1" source="113" target="116" edge="1">
                    <mxGeometry width="50" height="50" relative="1" as="geometry">
                        <mxPoint x="209" y="1949" as="sourcePoint"/>
                        <mxPoint x="409" y="1949" as="targetPoint"/>
                    </mxGeometry>
                </mxCell>
                <mxCell id="121" value="" style="endArrow=classic;html=1;exitX=0.5;exitY=1;exitDx=0;exitDy=0;entryX=0.5;entryY=0;entryDx=0;entryDy=0;" parent="1" source="115" target="116" edge="1">
                    <mxGeometry width="50" height="50" relative="1" as="geometry">
                        <mxPoint x="129" y="1879" as="sourcePoint"/>
                        <mxPoint x="319" y="1919" as="targetPoint"/>
                    </mxGeometry>
                </mxCell>
                <mxCell id="132" style="edgeStyle=none;html=1;exitX=0;exitY=0.75;exitDx=0;exitDy=0;entryX=1;entryY=0.5;entryDx=0;entryDy=0;dashed=1;endArrow=block;endFill=0;" parent="1" source="122" target="130" edge="1">
                    <mxGeometry relative="1" as="geometry"/>
                </mxCell>
                <mxCell id="122" value="&lt;span style=&quot;font-weight: normal;&quot;&gt;MySQL&lt;br&gt;Repository&lt;br&gt;&lt;/span&gt;" style="rounded=0;whiteSpace=wrap;html=1;fillColor=none;verticalAlign=middle;fontStyle=1" parent="1" vertex="1">
                    <mxGeometry x="669" y="1919" width="80" height="40" as="geometry"/>
                </mxCell>
                <mxCell id="125" value="" style="endArrow=classic;html=1;exitX=1;exitY=0.5;exitDx=0;exitDy=0;entryX=0;entryY=0.25;entryDx=0;entryDy=0;" parent="1" source="115" target="130" edge="1">
                    <mxGeometry width="50" height="50" relative="1" as="geometry">
                        <mxPoint x="479" y="1939" as="sourcePoint"/>
                        <mxPoint x="649" y="2029" as="targetPoint"/>
                    </mxGeometry>
                </mxCell>
                <mxCell id="127" value="" style="rounded=0;whiteSpace=wrap;html=1;fillColor=none;" parent="1" vertex="1">
                    <mxGeometry x="419" y="1779" width="40" height="20" as="geometry"/>
                </mxCell>
                <mxCell id="128" value="&lt;span style=&quot;font-weight: normal;&quot;&gt;Model&lt;br&gt;&lt;/span&gt;" style="rounded=0;whiteSpace=wrap;html=1;fillColor=none;verticalAlign=middle;fontStyle=1" parent="1" vertex="1">
                    <mxGeometry x="460" y="1870" width="90" height="40" as="geometry"/>
                </mxCell>
                <mxCell id="129" value="" style="endArrow=classic;html=1;exitX=1;exitY=0.25;exitDx=0;exitDy=0;entryX=0;entryY=0.5;entryDx=0;entryDy=0;" parent="1" source="115" target="128" edge="1">
                    <mxGeometry width="50" height="50" relative="1" as="geometry">
                        <mxPoint x="399" y="1959" as="sourcePoint"/>
                        <mxPoint x="659" y="2029" as="targetPoint"/>
                    </mxGeometry>
                </mxCell>
                <mxCell id="130" value="&lt;span style=&quot;font-weight: normal;&quot;&gt;&amp;lt;&amp;lt; interface &amp;gt;&amp;gt;&lt;br&gt;Repository&lt;br&gt;&lt;/span&gt;" style="rounded=0;whiteSpace=wrap;html=1;fillColor=none;verticalAlign=middle;fontStyle=1" parent="1" vertex="1">
                    <mxGeometry x="460" y="1969" width="90" height="40" as="geometry"/>
                </mxCell>
                <mxCell id="131" value="" style="endArrow=classic;html=1;exitX=0;exitY=0.5;exitDx=0;exitDy=0;entryX=1;entryY=0.5;entryDx=0;entryDy=0;" parent="1" source="122" target="128" edge="1">
                    <mxGeometry width="50" height="50" relative="1" as="geometry">
                        <mxPoint x="399" y="1949.0000000000002" as="sourcePoint"/>
                        <mxPoint x="479" y="1949.0000000000002" as="targetPoint"/>
                    </mxGeometry>
                </mxCell>
                <mxCell id="139" value="ドメインをまたがるクエリは処理が複雑になるため、&lt;br&gt;QueryServiceを通す" style="rounded=0;whiteSpace=wrap;html=1;align=left;shadow=1;glass=0;fontStyle=1" parent="1" vertex="1">
                    <mxGeometry x="40" y="2360" width="340" height="60" as="geometry"/>
                </mxCell>
                <mxCell id="140" value="domain" style="rounded=0;whiteSpace=wrap;html=1;fillColor=none;verticalAlign=top;fontStyle=1" parent="1" vertex="1">
                    <mxGeometry x="420" y="2460" width="180" height="280" as="geometry"/>
                </mxCell>
                <mxCell id="141" value="presentation&lt;br&gt;(interface)" style="rounded=0;whiteSpace=wrap;html=1;fillColor=none;verticalAlign=top;fontStyle=1" parent="1" vertex="1">
                    <mxGeometry x="40" y="2460" width="180" height="280" as="geometry"/>
                </mxCell>
                <mxCell id="142" value="" style="rounded=0;whiteSpace=wrap;html=1;fillColor=none;" parent="1" vertex="1">
                    <mxGeometry x="40" y="2440" width="40" height="20" as="geometry"/>
                </mxCell>
                <mxCell id="143" value="applicaton" style="rounded=0;whiteSpace=wrap;html=1;fillColor=none;verticalAlign=top;fontStyle=1" parent="1" vertex="1">
                    <mxGeometry x="230" y="2460" width="180" height="280" as="geometry"/>
                </mxCell>
                <mxCell id="144" value="" style="rounded=0;whiteSpace=wrap;html=1;fillColor=none;" parent="1" vertex="1">
                    <mxGeometry x="230" y="2440" width="40" height="20" as="geometry"/>
                </mxCell>
                <mxCell id="145" value="dataaccess&lt;br&gt;(infrastructure)" style="rounded=0;whiteSpace=wrap;html=1;fillColor=none;verticalAlign=top;fontStyle=1" parent="1" vertex="1">
                    <mxGeometry x="610" y="2460" width="180" height="280" as="geometry"/>
                </mxCell>
                <mxCell id="146" value="" style="rounded=0;whiteSpace=wrap;html=1;fillColor=none;" parent="1" vertex="1">
                    <mxGeometry x="610" y="2440" width="40" height="20" as="geometry"/>
                </mxCell>
                <mxCell id="147" value="&lt;span style=&quot;font-weight: normal;&quot;&gt;Request&lt;/span&gt;" style="rounded=0;whiteSpace=wrap;html=1;fillColor=none;verticalAlign=middle;fontStyle=1" parent="1" vertex="1">
                    <mxGeometry x="80" y="2500" width="80" height="40" as="geometry"/>
                </mxCell>
                <mxCell id="148" value="&lt;span style=&quot;font-weight: normal;&quot;&gt;Router&lt;br&gt;(Controller)&lt;br&gt;&lt;/span&gt;" style="rounded=0;whiteSpace=wrap;html=1;fillColor=none;verticalAlign=middle;fontStyle=1" parent="1" vertex="1">
                    <mxGeometry x="120" y="2580" width="80" height="40" as="geometry"/>
                </mxCell>
                <mxCell id="149" value="&lt;span style=&quot;font-weight: normal;&quot;&gt;Response&lt;/span&gt;" style="rounded=0;whiteSpace=wrap;html=1;fillColor=none;verticalAlign=middle;fontStyle=1" parent="1" vertex="1">
                    <mxGeometry x="80" y="2660" width="80" height="40" as="geometry"/>
                </mxCell>
                <mxCell id="166" style="edgeStyle=none;html=1;exitX=0.75;exitY=1;exitDx=0;exitDy=0;" parent="1" source="150" target="165" edge="1">
                    <mxGeometry relative="1" as="geometry"/>
                </mxCell>
                <mxCell id="150" value="&lt;span style=&quot;font-weight: 400;&quot;&gt;Service&lt;/span&gt;&lt;br style=&quot;border-color: var(--border-color); font-weight: 400;&quot;&gt;&lt;span style=&quot;font-weight: 400;&quot;&gt;(Logic)&lt;/span&gt;&lt;br style=&quot;border-color: var(--border-color); font-weight: 400;&quot;&gt;&lt;span style=&quot;font-weight: 400;&quot;&gt;(UseCase)&lt;/span&gt;&lt;span style=&quot;font-weight: normal;&quot;&gt;&lt;br&gt;&lt;/span&gt;" style="rounded=0;whiteSpace=wrap;html=1;fillColor=none;verticalAlign=middle;fontStyle=1" parent="1" vertex="1">
                    <mxGeometry x="310" y="2580" width="80" height="40" as="geometry"/>
                </mxCell>
                <mxCell id="151" value="&lt;span style=&quot;font-weight: normal;&quot;&gt;Output&lt;br&gt;(Dto)&lt;br&gt;&lt;/span&gt;" style="rounded=0;whiteSpace=wrap;html=1;fillColor=none;verticalAlign=middle;fontStyle=1" parent="1" vertex="1">
                    <mxGeometry x="240" y="2640" width="80" height="40" as="geometry"/>
                </mxCell>
                <mxCell id="152" value="" style="endArrow=classic;html=1;entryX=0.5;entryY=1;entryDx=0;entryDy=0;exitX=0.5;exitY=0;exitDx=0;exitDy=0;" parent="1" source="148" target="147" edge="1">
                    <mxGeometry width="50" height="50" relative="1" as="geometry">
                        <mxPoint x="330" y="2610" as="sourcePoint"/>
                        <mxPoint x="380" y="2560" as="targetPoint"/>
                    </mxGeometry>
                </mxCell>
                <mxCell id="153" value="" style="endArrow=classic;html=1;entryX=0.5;entryY=0;entryDx=0;entryDy=0;exitX=0.5;exitY=1;exitDx=0;exitDy=0;" parent="1" source="148" target="149" edge="1">
                    <mxGeometry width="50" height="50" relative="1" as="geometry">
                        <mxPoint x="170" y="2650" as="sourcePoint"/>
                        <mxPoint x="130" y="2610" as="targetPoint"/>
                    </mxGeometry>
                </mxCell>
                <mxCell id="154" value="" style="endArrow=classic;html=1;entryX=0;entryY=0.5;entryDx=0;entryDy=0;exitX=1;exitY=0.5;exitDx=0;exitDy=0;" parent="1" source="148" target="150" edge="1">
                    <mxGeometry width="50" height="50" relative="1" as="geometry">
                        <mxPoint x="170" y="2630" as="sourcePoint"/>
                        <mxPoint x="130" y="2670" as="targetPoint"/>
                    </mxGeometry>
                </mxCell>
                <mxCell id="155" value="" style="endArrow=classic;html=1;entryX=0;entryY=0.5;entryDx=0;entryDy=0;exitX=1;exitY=0.75;exitDx=0;exitDy=0;" parent="1" source="148" target="151" edge="1">
                    <mxGeometry width="50" height="50" relative="1" as="geometry">
                        <mxPoint x="210" y="2610" as="sourcePoint"/>
                        <mxPoint x="410" y="2610" as="targetPoint"/>
                    </mxGeometry>
                </mxCell>
                <mxCell id="156" value="" style="endArrow=classic;html=1;exitX=0.5;exitY=1;exitDx=0;exitDy=0;entryX=0.5;entryY=0;entryDx=0;entryDy=0;" parent="1" source="150" target="151" edge="1">
                    <mxGeometry width="50" height="50" relative="1" as="geometry">
                        <mxPoint x="130" y="2540" as="sourcePoint"/>
                        <mxPoint x="320" y="2580" as="targetPoint"/>
                    </mxGeometry>
                </mxCell>
                <mxCell id="157" style="edgeStyle=none;html=1;exitX=0;exitY=0.75;exitDx=0;exitDy=0;entryX=1;entryY=0.5;entryDx=0;entryDy=0;dashed=1;endArrow=block;endFill=0;" parent="1" source="158" target="163" edge="1">
                    <mxGeometry relative="1" as="geometry"/>
                </mxCell>
                <mxCell id="158" value="&lt;span style=&quot;font-weight: normal;&quot;&gt;MySQL&lt;br&gt;Repository&lt;br&gt;&lt;/span&gt;" style="rounded=0;whiteSpace=wrap;html=1;fillColor=none;verticalAlign=middle;fontStyle=1" parent="1" vertex="1">
                    <mxGeometry x="670" y="2580" width="80" height="40" as="geometry"/>
                </mxCell>
                <mxCell id="159" value="" style="endArrow=classic;html=1;exitX=1;exitY=0.5;exitDx=0;exitDy=0;entryX=0;entryY=0.25;entryDx=0;entryDy=0;" parent="1" source="150" target="163" edge="1">
                    <mxGeometry width="50" height="50" relative="1" as="geometry">
                        <mxPoint x="480" y="2600" as="sourcePoint"/>
                        <mxPoint x="650" y="2690" as="targetPoint"/>
                    </mxGeometry>
                </mxCell>
                <mxCell id="160" value="" style="rounded=0;whiteSpace=wrap;html=1;fillColor=none;" parent="1" vertex="1">
                    <mxGeometry x="420" y="2440" width="40" height="20" as="geometry"/>
                </mxCell>
                <mxCell id="161" value="&lt;span style=&quot;font-weight: normal;&quot;&gt;Model&lt;br&gt;&lt;/span&gt;" style="rounded=0;whiteSpace=wrap;html=1;fillColor=none;verticalAlign=middle;fontStyle=1" parent="1" vertex="1">
                    <mxGeometry x="461" y="2531" width="90" height="40" as="geometry"/>
                </mxCell>
                <mxCell id="162" value="" style="endArrow=classic;html=1;exitX=1;exitY=0.25;exitDx=0;exitDy=0;entryX=0;entryY=0.5;entryDx=0;entryDy=0;" parent="1" source="150" target="161" edge="1">
                    <mxGeometry width="50" height="50" relative="1" as="geometry">
                        <mxPoint x="400" y="2620" as="sourcePoint"/>
                        <mxPoint x="660" y="2690" as="targetPoint"/>
                    </mxGeometry>
                </mxCell>
                <mxCell id="163" value="&lt;span style=&quot;font-weight: normal;&quot;&gt;&amp;lt;&amp;lt; interface &amp;gt;&amp;gt;&lt;br&gt;Repository&lt;br&gt;&lt;/span&gt;" style="rounded=0;whiteSpace=wrap;html=1;fillColor=none;verticalAlign=middle;fontStyle=1" parent="1" vertex="1">
                    <mxGeometry x="461" y="2630" width="90" height="40" as="geometry"/>
                </mxCell>
                <mxCell id="164" value="" style="endArrow=classic;html=1;exitX=0;exitY=0.5;exitDx=0;exitDy=0;entryX=1;entryY=0.5;entryDx=0;entryDy=0;" parent="1" source="158" target="161" edge="1">
                    <mxGeometry width="50" height="50" relative="1" as="geometry">
                        <mxPoint x="400" y="2610" as="sourcePoint"/>
                        <mxPoint x="480" y="2610" as="targetPoint"/>
                    </mxGeometry>
                </mxCell>
                <mxCell id="165" value="&lt;span style=&quot;font-weight: normal;&quot;&gt;&amp;lt;&amp;lt;interface&amp;gt;&amp;gt;&lt;br&gt;QueryService&lt;br&gt;&lt;/span&gt;" style="rounded=0;whiteSpace=wrap;html=1;fillColor=none;verticalAlign=middle;fontStyle=1" parent="1" vertex="1">
                    <mxGeometry x="320" y="2690" width="80" height="40" as="geometry"/>
                </mxCell>
                <mxCell id="167" value="&lt;span style=&quot;font-weight: normal;&quot;&gt;MySQL&lt;br&gt;QueryService&lt;br&gt;&lt;/span&gt;" style="rounded=0;whiteSpace=wrap;html=1;fillColor=none;verticalAlign=middle;fontStyle=1" parent="1" vertex="1">
                    <mxGeometry x="640" y="2690" width="80" height="40" as="geometry"/>
                </mxCell>
                <mxCell id="168" style="edgeStyle=none;html=1;exitX=0;exitY=0.5;exitDx=0;exitDy=0;entryX=1;entryY=0.5;entryDx=0;entryDy=0;dashed=1;endArrow=block;endFill=0;" parent="1" source="167" target="165" edge="1">
                    <mxGeometry relative="1" as="geometry">
                        <mxPoint x="680" y="2620" as="sourcePoint"/>
                        <mxPoint x="561" y="2660" as="targetPoint"/>
                    </mxGeometry>
                </mxCell>
            </root>
        </mxGraphModel>
    </diagram>
</mxfile>